# xmcd
#
# Track frame offsets:
#	150
#	15657
#	27845
#	43543
#	54093
#	68906
#	82602
#	96359
#	107979
#	122734
#	135562
#	149273
#	162671
#	175899
#	189368
# Disc length: 2693 seconds
# Revision: 1
# Processed by: cddbd v1.5.2PL0 Copyright (c) Steve Scherf et al.
#
# Submitted via: libkcddb 0.21
#
DISCID=c20a830f
DTITLE=Divers - Casa do fado
DYEAR=2006
DGENRE=Folk
TTITLE0=Maria Ana Bobone - Alamares
TTITLE1=Salgado Armando Freire - Fado em mi menor
TTITLE2=Manuel Cardoso de Menezes - Fado
TTITLE3=Maria Leopoldina Guia - Mouraria
TTITLE4=Amalia Rodrigues - Maria da Cruz
TTITLE5=Salgado Armando Freire - Fado armandinho
TTITLE6=Madalena de Melo - Cantares
TTITLE7=Amalia Rodrigues - Los piconeros
TTITLE8=Carlos Zel - Rapsodia
TTITLE9=Dr. Edmundo de Bettencourt - Saudadinha
TTITLE10=Amalia Rodrigues - Ojos Verdes
TTITLE11=Dr. Ricardo Borges de Sousa and Eduardo Alves - Variaçoes sobre fado corrido
TTITLE12=Maria Teresa de Noronha - Pombalinho
TTITLE13=Madalena de Melo - Fado estoril
TTITLE14=Amalia Rodrigues - Carmencita
EXTD=CD2
EXTT0=
EXTT1=
EXTT2=
EXTT3=
EXTT4=
EXTT5=
EXTT6=
EXTT7=
EXTT8=
EXTT9=
EXTT10=
EXTT11=
EXTT12=
EXTT13=
EXTT14=
PLAYORDER=
